<mxfile host="app.diagrams.net" modified="2022-03-28T17:15:21.181Z" agent="5.0 (Macintosh; Intel Mac OS X 10_15_7) AppleWebKit/537.36 (KHTML, like Gecko) Chrome/99.0.4844.83 Safari/537.36" etag="MtBh0Wsx_RxlW6KISi5E" version="17.2.4" type="github">
  <diagram id="kz3dH1U2wMBaOtRKHvNg" name="Page-1">
    <mxGraphModel dx="2075" dy="779" grid="1" gridSize="10" guides="1" tooltips="1" connect="1" arrows="1" fold="1" page="1" pageScale="1" pageWidth="827" pageHeight="1169" math="0" shadow="0">
      <root>
        <mxCell id="0" />
        <mxCell id="1" parent="0" />
        <mxCell id="h3sMWkzl3CLincA4zuW1-3" value="" style="edgeStyle=orthogonalEdgeStyle;rounded=0;orthogonalLoop=1;jettySize=auto;html=1;curved=1;" parent="1" source="h3sMWkzl3CLincA4zuW1-1" target="h3sMWkzl3CLincA4zuW1-2" edge="1">
          <mxGeometry relative="1" as="geometry" />
        </mxCell>
        <mxCell id="h3sMWkzl3CLincA4zuW1-1" value="@EnableTransactionManagement" style="rounded=0;whiteSpace=wrap;html=1;fillColor=#60a917;strokeColor=#2D7600;fontColor=#ffffff;" parent="1" vertex="1">
          <mxGeometry x="280" y="40" width="220" height="60" as="geometry" />
        </mxCell>
        <mxCell id="h3sMWkzl3CLincA4zuW1-5" value="" style="edgeStyle=orthogonalEdgeStyle;curved=1;rounded=0;orthogonalLoop=1;jettySize=auto;html=1;" parent="1" source="h3sMWkzl3CLincA4zuW1-2" target="h3sMWkzl3CLincA4zuW1-4" edge="1">
          <mxGeometry relative="1" as="geometry" />
        </mxCell>
        <mxCell id="h3sMWkzl3CLincA4zuW1-2" value="@Import(TransactionManagementConfigurationSelector.class)" style="whiteSpace=wrap;html=1;fillColor=#60a917;strokeColor=#2D7600;fontColor=#ffffff;rounded=0;" parent="1" vertex="1">
          <mxGeometry x="210" y="150" width="360" height="60" as="geometry" />
        </mxCell>
        <mxCell id="h3sMWkzl3CLincA4zuW1-7" value="" style="edgeStyle=orthogonalEdgeStyle;curved=1;rounded=0;orthogonalLoop=1;jettySize=auto;html=1;fontColor=#FF0000;" parent="1" source="h3sMWkzl3CLincA4zuW1-4" target="h3sMWkzl3CLincA4zuW1-6" edge="1">
          <mxGeometry relative="1" as="geometry" />
        </mxCell>
        <mxCell id="h3sMWkzl3CLincA4zuW1-4" value="TransactionManagementConfigurationSelector#&lt;font color=&quot;#ff0000&quot;&gt;selectImports&lt;/font&gt;" style="whiteSpace=wrap;html=1;rounded=0;fillColor=#dae8fc;strokeColor=#6c8ebf;" parent="1" vertex="1">
          <mxGeometry x="215" y="270" width="350" height="60" as="geometry" />
        </mxCell>
        <mxCell id="h3sMWkzl3CLincA4zuW1-13" value="" style="edgeStyle=orthogonalEdgeStyle;curved=1;rounded=0;orthogonalLoop=1;jettySize=auto;html=1;fontColor=#FF0000;" parent="1" source="h3sMWkzl3CLincA4zuW1-6" target="h3sMWkzl3CLincA4zuW1-12" edge="1">
          <mxGeometry relative="1" as="geometry" />
        </mxCell>
        <mxCell id="4VrhSYovmqzg8rR9ZFnU-49" value="" style="edgeStyle=orthogonalEdgeStyle;curved=1;rounded=0;orthogonalLoop=1;jettySize=auto;html=1;dashed=1;fontColor=#FF0000;strokeColor=#000000;strokeWidth=2;entryX=0;entryY=0.5;entryDx=0;entryDy=0;" edge="1" parent="1" source="h3sMWkzl3CLincA4zuW1-6" target="4VrhSYovmqzg8rR9ZFnU-48">
          <mxGeometry relative="1" as="geometry" />
        </mxCell>
        <mxCell id="h3sMWkzl3CLincA4zuW1-6" value="&lt;div&gt;return new String[] {&lt;font color=&quot;#ff0000&quot;&gt;AutoProxyRegistrar.class&lt;/font&gt;.getName(),&lt;/div&gt;&lt;div&gt;&lt;span&gt;      &lt;/span&gt;&lt;font color=&quot;#ff0000&quot;&gt;ProxyTransactionManagementConfiguration.class&lt;/font&gt;.getName()};&lt;/div&gt;" style="whiteSpace=wrap;html=1;fillColor=#f5f5f5;strokeColor=#666666;rounded=0;fontColor=#333333;" parent="1" vertex="1">
          <mxGeometry x="205" y="480" width="370" height="60" as="geometry" />
        </mxCell>
        <mxCell id="h3sMWkzl3CLincA4zuW1-8" value="1、AutoProxyRegistrar 注册了&amp;nbsp;InfrastructureAdvisorAutoProxyCreator&lt;br&gt;作用：查找 Advisor&lt;br&gt;2、ProxyTransactionManagementConfiguration 注册了 3 个 bean&lt;br&gt;BeanFactoryTransactionAttributeSourceAdvisor 是一个 advisor&lt;br&gt;AnnotationTransactionAttributeSource 封装了 @Transactional 注解信息&lt;br&gt;TransactionInterceptor 是一个 Advice" style="whiteSpace=wrap;html=1;shape=partialRectangle;top=0;left=0;bottom=1;right=0;points=[[0,1],[1,1]];fillColor=#fff2cc;align=left;verticalAlign=bottom;routingCenterY=0.5;snapToPoint=1;recursiveResize=0;autosize=1;treeFolding=1;treeMoving=1;newEdgeStyle={&quot;edgeStyle&quot;:&quot;entityRelationEdgeStyle&quot;,&quot;startArrow&quot;:&quot;none&quot;,&quot;endArrow&quot;:&quot;none&quot;,&quot;segment&quot;:10,&quot;curved&quot;:1};strokeColor=#d6b656;" parent="1" vertex="1">
          <mxGeometry x="-150" y="360" width="410" height="90" as="geometry" />
        </mxCell>
        <mxCell id="h3sMWkzl3CLincA4zuW1-9" value="" style="edgeStyle=entityRelationEdgeStyle;startArrow=none;endArrow=none;segment=10;curved=1;rounded=0;fontColor=#000000;exitX=0.25;exitY=0;exitDx=0;exitDy=0;" parent="1" source="h3sMWkzl3CLincA4zuW1-6" target="h3sMWkzl3CLincA4zuW1-8" edge="1">
          <mxGeometry relative="1" as="geometry">
            <mxPoint x="60" y="400" as="sourcePoint" />
          </mxGeometry>
        </mxCell>
        <mxCell id="h3sMWkzl3CLincA4zuW1-15" value="" style="edgeStyle=orthogonalEdgeStyle;curved=1;rounded=0;orthogonalLoop=1;jettySize=auto;html=1;fontColor=#FF0000;" parent="1" source="h3sMWkzl3CLincA4zuW1-12" target="h3sMWkzl3CLincA4zuW1-14" edge="1">
          <mxGeometry relative="1" as="geometry" />
        </mxCell>
        <mxCell id="h3sMWkzl3CLincA4zuW1-25" value="" style="edgeStyle=orthogonalEdgeStyle;curved=1;rounded=0;orthogonalLoop=1;jettySize=auto;html=1;fontColor=#FF0000;dashed=1;strokeWidth=2;" parent="1" source="h3sMWkzl3CLincA4zuW1-12" target="h3sMWkzl3CLincA4zuW1-24" edge="1">
          <mxGeometry relative="1" as="geometry" />
        </mxCell>
        <mxCell id="h3sMWkzl3CLincA4zuW1-12" value="&lt;div&gt;@Bean(name = TransactionManagementConfigUtils.TRANSACTION_ADVISOR_BEAN_NAME)&lt;/div&gt;&lt;div&gt;&lt;span&gt; &lt;/span&gt;@Role(BeanDefinition.ROLE_INFRASTRUCTURE)&lt;/div&gt;&lt;div&gt;&lt;span&gt; &lt;/span&gt;public &lt;b&gt;&lt;font color=&quot;#ff0000&quot;&gt;BeanFactoryTransactionAttributeSourceAdvisor&lt;/font&gt;&lt;/b&gt; transactionAdvisor(&lt;/div&gt;&lt;div&gt;&lt;span&gt;   &lt;/span&gt;TransactionAttributeSource transactionAttributeSource, // AnnotationTransactionAttributeSource&lt;/div&gt;&lt;div&gt;&lt;span&gt;   &lt;/span&gt;TransactionInterceptor transactionInterceptor) {&lt;/div&gt;&lt;div&gt;&lt;br&gt;&lt;/div&gt;&lt;blockquote style=&quot;margin: 0 0 0 40px ; border: none ; padding: 0px&quot;&gt;&lt;div&gt;// 创建一个 Advisor&lt;/div&gt;&lt;div&gt;&lt;b&gt;&lt;font color=&quot;#ff0000&quot;&gt;BeanFactoryTransactionAttributeSourceAdvisor&lt;/font&gt;&lt;/b&gt; advisor = new BeanFactoryTransactionAttributeSourceAdvisor();&lt;/div&gt;&lt;div&gt;// 设置切点的属性解析器&lt;/div&gt;&lt;div&gt;advisor.setTransactionAttributeSource(transactionAttributeSource);&lt;/div&gt;&lt;div&gt;// ★★★ 设置代理逻辑，是一个 TransactionInterceptor 对象，会执行其 invoke 方法&lt;/div&gt;&lt;div&gt;// 来处理事务，开启事务，关闭事务，回滚，提交等&lt;/div&gt;&lt;div&gt;advisor.setAdvice(transactionInterceptor);&lt;/div&gt;&lt;div&gt;&lt;br&gt;&lt;/div&gt;&lt;div&gt;if (this.enableTx != null) {&lt;/div&gt;&lt;div&gt;&lt;span style=&quot;white-space: pre&quot;&gt; &lt;/span&gt;advisor.setOrder(this.enableTx.&amp;lt;Integer&amp;gt;getNumber(&quot;order&quot;));&lt;/div&gt;&lt;div&gt;}&lt;/div&gt;&lt;div&gt;return advisor;&lt;/div&gt;&lt;/blockquote&gt;&lt;div&gt;&lt;span&gt; &lt;/span&gt;}&lt;/div&gt;" style="whiteSpace=wrap;html=1;fillColor=#d5e8d4;strokeColor=#82b366;rounded=0;align=left;spacing=6;" parent="1" vertex="1">
          <mxGeometry x="48.13" y="620" width="683.75" height="320" as="geometry" />
        </mxCell>
        <mxCell id="h3sMWkzl3CLincA4zuW1-17" value="" style="edgeStyle=orthogonalEdgeStyle;curved=1;rounded=0;orthogonalLoop=1;jettySize=auto;html=1;fontColor=#FF0000;" parent="1" source="h3sMWkzl3CLincA4zuW1-14" target="h3sMWkzl3CLincA4zuW1-16" edge="1">
          <mxGeometry relative="1" as="geometry" />
        </mxCell>
        <mxCell id="h3sMWkzl3CLincA4zuW1-30" style="edgeStyle=orthogonalEdgeStyle;curved=1;rounded=0;orthogonalLoop=1;jettySize=auto;html=1;exitX=1;exitY=0.5;exitDx=0;exitDy=0;entryX=0;entryY=0.5;entryDx=0;entryDy=0;fontColor=#FF0000;strokeWidth=1;dashed=1;" parent="1" source="h3sMWkzl3CLincA4zuW1-14" target="h3sMWkzl3CLincA4zuW1-26" edge="1">
          <mxGeometry relative="1" as="geometry" />
        </mxCell>
        <mxCell id="h3sMWkzl3CLincA4zuW1-14" value="&lt;div&gt;// 提供 @Transactional 注解的信息&lt;/div&gt;&lt;div&gt;&lt;span&gt; &lt;/span&gt;@Bean&lt;/div&gt;&lt;div&gt;&lt;span&gt; &lt;/span&gt;@Role(BeanDefinition.ROLE_INFRASTRUCTURE)&lt;/div&gt;&lt;div&gt;&lt;span&gt; &lt;/span&gt;public &lt;b&gt;&lt;font color=&quot;#ff0000&quot;&gt;TransactionAttributeSource&lt;/font&gt;&lt;/b&gt; transactionAttributeSource() {&lt;/div&gt;&lt;div&gt;&lt;span&gt;  &lt;/span&gt;&lt;span style=&quot;white-space: pre&quot;&gt; &lt;/span&gt;// 用于解析 @Transactional 注解的信息&lt;/div&gt;&lt;div&gt;&lt;span&gt;  &lt;/span&gt;&lt;span style=&quot;white-space: pre&quot;&gt; &lt;/span&gt;return new &lt;font color=&quot;#ff0000&quot;&gt;&lt;b&gt;AnnotationTransactionAttributeSource&lt;/b&gt;&lt;/font&gt;();&lt;/div&gt;&lt;div&gt;&lt;span&gt; &lt;/span&gt;}&lt;/div&gt;" style="whiteSpace=wrap;html=1;align=left;fillColor=#d5e8d4;strokeColor=#82b366;rounded=0;spacing=6;" parent="1" vertex="1">
          <mxGeometry x="205" y="1010" width="370" height="130" as="geometry" />
        </mxCell>
        <mxCell id="4VrhSYovmqzg8rR9ZFnU-47" value="" style="edgeStyle=orthogonalEdgeStyle;curved=1;rounded=0;orthogonalLoop=1;jettySize=auto;html=1;dashed=1;fontColor=#FF0000;strokeColor=#000000;strokeWidth=2;" edge="1" parent="1" source="h3sMWkzl3CLincA4zuW1-16" target="4VrhSYovmqzg8rR9ZFnU-46">
          <mxGeometry relative="1" as="geometry" />
        </mxCell>
        <mxCell id="h3sMWkzl3CLincA4zuW1-16" value="&lt;div&gt;// advice&lt;/div&gt;&lt;div&gt;&lt;span&gt; &lt;/span&gt;@Bean&lt;/div&gt;&lt;div&gt;&lt;span&gt; &lt;/span&gt;@Role(BeanDefinition.ROLE_INFRASTRUCTURE)&lt;/div&gt;&lt;div&gt;&lt;span&gt; &lt;/span&gt;public &lt;b&gt;&lt;font color=&quot;#ff0000&quot;&gt;TransactionInterceptor&lt;/font&gt;&lt;/b&gt; transactionInterceptor(TransactionAttributeSource transactionAttributeSource) {&lt;/div&gt;&lt;blockquote style=&quot;margin: 0 0 0 40px ; border: none ; padding: 0px&quot;&gt;&lt;div&gt;TransactionInterceptor interceptor = new TransactionInterceptor();&lt;/div&gt;&lt;div&gt;// 拦截器中持有 @Transactional 注解的信息&lt;/div&gt;&lt;div&gt;interceptor.setTransactionAttributeSource(transactionAttributeSource);&lt;/div&gt;&lt;div&gt;if (this.txManager != null) {&lt;/div&gt;&lt;div&gt;&lt;span style=&quot;white-space: pre&quot;&gt;	&lt;/span&gt;&lt;b&gt;&lt;font color=&quot;#3399ff&quot;&gt;interceptor.setTransactionManager(&lt;/font&gt;&lt;font color=&quot;#ff0000&quot;&gt;this.txManager&lt;/font&gt;&lt;font color=&quot;#3399ff&quot;&gt;);&lt;/font&gt;&lt;/b&gt;&lt;/div&gt;&lt;div&gt;}&lt;/div&gt;&lt;div&gt;return interceptor;&lt;/div&gt;&lt;/blockquote&gt;&lt;div&gt;&lt;span&gt; &lt;/span&gt;}&lt;/div&gt;" style="whiteSpace=wrap;html=1;align=left;fillColor=#d5e8d4;strokeColor=#82b366;rounded=0;spacing=6;" parent="1" vertex="1">
          <mxGeometry x="85" y="1230" width="610" height="215" as="geometry" />
        </mxCell>
        <mxCell id="h3sMWkzl3CLincA4zuW1-18" value="Advisor" style="whiteSpace=wrap;html=1;shape=partialRectangle;top=0;left=0;bottom=1;right=0;points=[[0,1],[1,1]];fillColor=#fff2cc;align=center;verticalAlign=bottom;routingCenterY=0.5;snapToPoint=1;recursiveResize=0;autosize=1;treeFolding=1;treeMoving=1;newEdgeStyle={&quot;edgeStyle&quot;:&quot;entityRelationEdgeStyle&quot;,&quot;startArrow&quot;:&quot;none&quot;,&quot;endArrow&quot;:&quot;none&quot;,&quot;segment&quot;:10,&quot;curved&quot;:1};strokeColor=#d6b656;" parent="1" vertex="1">
          <mxGeometry x="50" y="560" width="70" height="20" as="geometry" />
        </mxCell>
        <mxCell id="h3sMWkzl3CLincA4zuW1-19" value="" style="edgeStyle=entityRelationEdgeStyle;startArrow=none;endArrow=none;segment=10;curved=1;rounded=0;fontColor=#000000;exitX=0.25;exitY=0;exitDx=0;exitDy=0;" parent="1" source="h3sMWkzl3CLincA4zuW1-12" target="h3sMWkzl3CLincA4zuW1-18" edge="1">
          <mxGeometry relative="1" as="geometry">
            <mxPoint x="-70" y="585" as="sourcePoint" />
          </mxGeometry>
        </mxCell>
        <mxCell id="h3sMWkzl3CLincA4zuW1-20" value="Advice" style="whiteSpace=wrap;html=1;shape=partialRectangle;top=0;left=0;bottom=1;right=0;points=[[0,1],[1,1]];fillColor=#fff2cc;align=center;verticalAlign=bottom;routingCenterY=0.5;snapToPoint=1;recursiveResize=0;autosize=1;treeFolding=1;treeMoving=1;newEdgeStyle={&quot;edgeStyle&quot;:&quot;entityRelationEdgeStyle&quot;,&quot;startArrow&quot;:&quot;none&quot;,&quot;endArrow&quot;:&quot;none&quot;,&quot;segment&quot;:10,&quot;curved&quot;:1};strokeColor=#d6b656;" parent="1" vertex="1">
          <mxGeometry x="60" y="1160" width="70" height="20" as="geometry" />
        </mxCell>
        <mxCell id="h3sMWkzl3CLincA4zuW1-21" value="" style="edgeStyle=entityRelationEdgeStyle;startArrow=none;endArrow=none;segment=10;curved=1;rounded=0;fontColor=#000000;exitX=0.25;exitY=0;exitDx=0;exitDy=0;" parent="1" source="h3sMWkzl3CLincA4zuW1-16" target="h3sMWkzl3CLincA4zuW1-20" edge="1">
          <mxGeometry relative="1" as="geometry">
            <mxPoint x="10" y="1180" as="sourcePoint" />
          </mxGeometry>
        </mxCell>
        <mxCell id="h3sMWkzl3CLincA4zuW1-22" value="解析 @Transactional 注解信息" style="whiteSpace=wrap;html=1;shape=partialRectangle;top=0;left=0;bottom=1;right=0;points=[[0,1],[1,1]];fillColor=#fff2cc;align=center;verticalAlign=bottom;routingCenterY=0.5;snapToPoint=1;recursiveResize=0;autosize=1;treeFolding=1;treeMoving=1;newEdgeStyle={&quot;edgeStyle&quot;:&quot;entityRelationEdgeStyle&quot;,&quot;startArrow&quot;:&quot;none&quot;,&quot;endArrow&quot;:&quot;none&quot;,&quot;segment&quot;:10,&quot;curved&quot;:1};strokeColor=#d6b656;" parent="1" vertex="1">
          <mxGeometry x="30" y="970" width="200" height="20" as="geometry" />
        </mxCell>
        <mxCell id="h3sMWkzl3CLincA4zuW1-23" value="" style="edgeStyle=entityRelationEdgeStyle;startArrow=none;endArrow=none;segment=10;curved=1;rounded=0;fontColor=#000000;exitX=0.25;exitY=0;exitDx=0;exitDy=0;" parent="1" source="h3sMWkzl3CLincA4zuW1-14" target="h3sMWkzl3CLincA4zuW1-22" edge="1">
          <mxGeometry relative="1" as="geometry">
            <mxPoint x="50" y="1010" as="sourcePoint" />
          </mxGeometry>
        </mxCell>
        <mxCell id="h3sMWkzl3CLincA4zuW1-27" value="" style="edgeStyle=orthogonalEdgeStyle;curved=1;rounded=0;orthogonalLoop=1;jettySize=auto;html=1;fontColor=#FF0000;strokeWidth=1;" parent="1" source="h3sMWkzl3CLincA4zuW1-24" target="h3sMWkzl3CLincA4zuW1-26" edge="1">
          <mxGeometry relative="1" as="geometry" />
        </mxCell>
        <mxCell id="h3sMWkzl3CLincA4zuW1-24" value="&lt;span&gt;BeanFactoryTransactionAttributeSourceAdvisor&lt;/span&gt;" style="whiteSpace=wrap;html=1;align=center;fillColor=#dae8fc;strokeColor=#6c8ebf;rounded=0;spacing=5;" parent="1" vertex="1">
          <mxGeometry x="960" y="750" width="280" height="60" as="geometry" />
        </mxCell>
        <mxCell id="4VrhSYovmqzg8rR9ZFnU-2" value="" style="edgeStyle=orthogonalEdgeStyle;rounded=0;orthogonalLoop=1;jettySize=auto;html=1;curved=1;strokeWidth=2;dashed=1;" edge="1" parent="1" source="h3sMWkzl3CLincA4zuW1-26" target="4VrhSYovmqzg8rR9ZFnU-1">
          <mxGeometry relative="1" as="geometry" />
        </mxCell>
        <mxCell id="4VrhSYovmqzg8rR9ZFnU-6" value="" style="edgeStyle=orthogonalEdgeStyle;curved=1;rounded=0;orthogonalLoop=1;jettySize=auto;html=1;fontColor=#FF0000;strokeWidth=2;dashed=1;" edge="1" parent="1" source="h3sMWkzl3CLincA4zuW1-26" target="4VrhSYovmqzg8rR9ZFnU-5">
          <mxGeometry relative="1" as="geometry" />
        </mxCell>
        <mxCell id="h3sMWkzl3CLincA4zuW1-26" value="&lt;div&gt;private final &lt;b&gt;&lt;font color=&quot;#ff0000&quot;&gt;TransactionAttributeSourcePointcut&lt;/font&gt;&lt;/b&gt; pointcut = new TransactionAttributeSourcePointcut() {&lt;/div&gt;&lt;blockquote style=&quot;margin: 0 0 0 40px ; border: none ; padding: 0px&quot;&gt;&lt;div&gt;@Override&lt;/div&gt;&lt;div&gt;@Nullable&lt;/div&gt;&lt;div&gt;protected TransactionAttributeSource getTransactionAttributeSource() {&lt;/div&gt;&lt;/blockquote&gt;&lt;blockquote style=&quot;margin: 0 0 0 40px ; border: none ; padding: 0px&quot;&gt;&lt;blockquote style=&quot;margin: 0 0 0 40px ; border: none ; padding: 0px&quot;&gt;&lt;div&gt;// AnnotationTransactionAttributeSource&lt;/div&gt;&lt;/blockquote&gt;&lt;blockquote style=&quot;margin: 0 0 0 40px ; border: none ; padding: 0px&quot;&gt;&lt;div&gt;return &lt;b&gt;&lt;font color=&quot;#ff0000&quot;&gt;transactionAttributeSource&lt;/font&gt;&lt;/b&gt;;&lt;/div&gt;&lt;/blockquote&gt;&lt;/blockquote&gt;&lt;blockquote style=&quot;margin: 0 0 0 40px ; border: none ; padding: 0px&quot;&gt;&lt;div&gt;}&lt;/div&gt;&lt;/blockquote&gt;&lt;div&gt;&lt;span&gt; &lt;/span&gt;};&lt;/div&gt;" style="whiteSpace=wrap;html=1;fillColor=#d5e8d4;strokeColor=#82b366;rounded=0;spacing=6;align=left;" parent="1" vertex="1">
          <mxGeometry x="815" y="890" width="570" height="140" as="geometry" />
        </mxCell>
        <mxCell id="h3sMWkzl3CLincA4zuW1-28" value="PointCut" style="whiteSpace=wrap;html=1;shape=partialRectangle;top=0;left=0;bottom=1;right=0;points=[[0,1],[1,1]];fillColor=#fff2cc;align=center;verticalAlign=bottom;routingCenterY=0.5;snapToPoint=1;recursiveResize=0;autosize=1;treeFolding=1;treeMoving=1;newEdgeStyle={&quot;edgeStyle&quot;:&quot;entityRelationEdgeStyle&quot;,&quot;startArrow&quot;:&quot;none&quot;,&quot;endArrow&quot;:&quot;none&quot;,&quot;segment&quot;:10,&quot;curved&quot;:1};strokeColor=#d6b656;" parent="1" vertex="1">
          <mxGeometry x="827" y="830" width="80" height="20" as="geometry" />
        </mxCell>
        <mxCell id="h3sMWkzl3CLincA4zuW1-29" value="" style="edgeStyle=entityRelationEdgeStyle;startArrow=none;endArrow=none;segment=10;curved=1;rounded=0;fontColor=#000000;strokeWidth=1;exitX=0.25;exitY=0;exitDx=0;exitDy=0;" parent="1" source="h3sMWkzl3CLincA4zuW1-26" target="h3sMWkzl3CLincA4zuW1-28" edge="1">
          <mxGeometry relative="1" as="geometry">
            <mxPoint x="904.5" y="880" as="sourcePoint" />
          </mxGeometry>
        </mxCell>
        <mxCell id="4VrhSYovmqzg8rR9ZFnU-4" value="" style="edgeStyle=orthogonalEdgeStyle;curved=1;rounded=0;orthogonalLoop=1;jettySize=auto;html=1;fontColor=#3399FF;" edge="1" parent="1" source="4VrhSYovmqzg8rR9ZFnU-1" target="4VrhSYovmqzg8rR9ZFnU-3">
          <mxGeometry relative="1" as="geometry" />
        </mxCell>
        <mxCell id="4VrhSYovmqzg8rR9ZFnU-1" value="&lt;div&gt;protected TransactionAttributeSourcePointcut() {&lt;/div&gt;&lt;blockquote style=&quot;margin: 0 0 0 40px ; border: none ; padding: 0px&quot;&gt;&lt;div&gt;// 类过滤：检查类上是否有 @Transactional 注解&lt;/div&gt;&lt;div&gt;&lt;b&gt;&lt;font color=&quot;#3399ff&quot;&gt;setClassFilter(&lt;/font&gt;&lt;font color=&quot;#ff0000&quot;&gt;new TransactionAttributeSourceClassFilter()&lt;/font&gt;&lt;font color=&quot;#3399ff&quot;&gt;);&lt;/font&gt;&lt;/b&gt;&lt;/div&gt;&lt;/blockquote&gt;&lt;div&gt;&lt;b&gt;&lt;font color=&quot;#3399ff&quot;&gt;&lt;span&gt;	&lt;/span&gt;}&lt;/font&gt;&lt;/b&gt;&lt;/div&gt;" style="whiteSpace=wrap;html=1;align=left;fillColor=#dae8fc;strokeColor=#6c8ebf;rounded=0;spacing=6;" vertex="1" parent="1">
          <mxGeometry x="1502.5" y="915" width="430" height="90" as="geometry" />
        </mxCell>
        <mxCell id="4VrhSYovmqzg8rR9ZFnU-10" value="" style="edgeStyle=orthogonalEdgeStyle;curved=1;rounded=0;orthogonalLoop=1;jettySize=auto;html=1;fontColor=#000000;" edge="1" parent="1" source="4VrhSYovmqzg8rR9ZFnU-3" target="4VrhSYovmqzg8rR9ZFnU-9">
          <mxGeometry relative="1" as="geometry" />
        </mxCell>
        <mxCell id="4VrhSYovmqzg8rR9ZFnU-11" value="&lt;font color=&quot;#ff0000&quot;&gt;SpringTransactionAnnotationParser#isCandidateClass&lt;/font&gt;" style="edgeLabel;html=1;align=center;verticalAlign=middle;resizable=0;points=[];fontColor=#000000;" vertex="1" connectable="0" parent="4VrhSYovmqzg8rR9ZFnU-10">
          <mxGeometry x="0.0909" y="1" relative="1" as="geometry">
            <mxPoint as="offset" />
          </mxGeometry>
        </mxCell>
        <mxCell id="4VrhSYovmqzg8rR9ZFnU-3" value="&lt;div&gt;private class &lt;b&gt;TransactionAttributeSourceClassFilter&lt;/b&gt; implements ClassFilter {&lt;/div&gt;&lt;div&gt;&lt;br&gt;&lt;/div&gt;&lt;blockquote style=&quot;margin: 0 0 0 40px ; border: none ; padding: 0px&quot;&gt;&lt;div&gt;@Override&lt;/div&gt;&lt;div&gt;public boolean &lt;b&gt;&lt;font color=&quot;#3399ff&quot;&gt;matches(Class&amp;lt;?&amp;gt; clazz)&lt;/font&gt;&lt;/b&gt; {&lt;/div&gt;&lt;/blockquote&gt;&lt;blockquote style=&quot;margin: 0 0 0 40px ; border: none ; padding: 0px&quot;&gt;&lt;blockquote style=&quot;margin: 0 0 0 40px ; border: none ; padding: 0px&quot;&gt;&lt;div&gt;if (TransactionalProxy.class.isAssignableFrom(clazz) ||&amp;nbsp;&lt;/div&gt;&lt;div&gt;&lt;span&gt;&lt;span style=&quot;white-space: pre&quot;&gt;	&lt;/span&gt;&lt;span style=&quot;white-space: pre&quot;&gt;	&lt;/span&gt;TransactionManager.class.isAssignableFrom(clazz) ||&amp;nbsp;&lt;/span&gt;&lt;/div&gt;&lt;div&gt;&lt;span&gt;&lt;span style=&quot;white-space: pre&quot;&gt;	&lt;/span&gt;&lt;span style=&quot;white-space: pre&quot;&gt;	&lt;/span&gt;PersistenceExceptionTranslator.class.isAssignableFrom(clazz)) {&lt;/span&gt;&lt;/div&gt;&lt;/blockquote&gt;&lt;blockquote style=&quot;margin: 0 0 0 40px ; border: none ; padding: 0px&quot;&gt;&lt;div&gt;&lt;span style=&quot;white-space: pre&quot;&gt;	&lt;/span&gt;return false;&lt;/div&gt;&lt;/blockquote&gt;&lt;blockquote style=&quot;margin: 0 0 0 40px ; border: none ; padding: 0px&quot;&gt;&lt;div&gt;}&lt;/div&gt;&lt;/blockquote&gt;&lt;blockquote style=&quot;margin: 0 0 0 40px ; border: none ; padding: 0px&quot;&gt;&lt;div&gt;// 获取到 AnnotationTransactionAttributeSource 对象&lt;/div&gt;&lt;/blockquote&gt;&lt;blockquote style=&quot;margin: 0 0 0 40px ; border: none ; padding: 0px&quot;&gt;&lt;div&gt;TransactionAttributeSource tas = getTransactionAttributeSource();&lt;/div&gt;&lt;/blockquote&gt;&lt;blockquote style=&quot;margin: 0 0 0 40px ; border: none ; padding: 0px&quot;&gt;&lt;div&gt;// 判断类上是否有 @Transactional 注解&lt;/div&gt;&lt;/blockquote&gt;&lt;blockquote style=&quot;margin: 0 0 0 40px ; border: none ; padding: 0px&quot;&gt;&lt;div&gt;return (tas == null || &lt;b&gt;&lt;font color=&quot;#ff0000&quot;&gt;tas.isCandidateClass(clazz)&lt;/font&gt;&lt;/b&gt;);&lt;/div&gt;&lt;/blockquote&gt;&lt;/blockquote&gt;&lt;blockquote style=&quot;margin: 0 0 0 40px ; border: none ; padding: 0px&quot;&gt;&lt;div&gt;}&lt;/div&gt;&lt;/blockquote&gt;&lt;div&gt;&lt;span&gt;	&lt;/span&gt;}&lt;/div&gt;" style="whiteSpace=wrap;html=1;align=left;fillColor=#f5f5f5;strokeColor=#666666;rounded=0;spacing=6;fontColor=#333333;" vertex="1" parent="1">
          <mxGeometry x="1460" y="1070" width="515" height="230" as="geometry" />
        </mxCell>
        <mxCell id="4VrhSYovmqzg8rR9ZFnU-8" value="" style="edgeStyle=orthogonalEdgeStyle;curved=1;rounded=0;orthogonalLoop=1;jettySize=auto;html=1;fontColor=#000000;" edge="1" parent="1" source="4VrhSYovmqzg8rR9ZFnU-5" target="4VrhSYovmqzg8rR9ZFnU-7">
          <mxGeometry relative="1" as="geometry" />
        </mxCell>
        <mxCell id="4VrhSYovmqzg8rR9ZFnU-12" value="&lt;font color=&quot;#ff0000&quot;&gt;AbstractFallbackTransactionAttributeSource#getTransactionAttribute&lt;/font&gt;" style="edgeLabel;html=1;align=center;verticalAlign=middle;resizable=0;points=[];fontColor=#FFFF66;" vertex="1" connectable="0" parent="4VrhSYovmqzg8rR9ZFnU-8">
          <mxGeometry x="0.0857" y="1" relative="1" as="geometry">
            <mxPoint y="1" as="offset" />
          </mxGeometry>
        </mxCell>
        <mxCell id="4VrhSYovmqzg8rR9ZFnU-5" value="&lt;div&gt;@Override&lt;/div&gt;&lt;div&gt;&lt;span&gt;	&lt;/span&gt;public boolean &lt;b&gt;&lt;font color=&quot;#3399ff&quot;&gt;matches(Method method, Class&amp;lt;?&amp;gt; targetClass) &lt;/font&gt;&lt;/b&gt;{&lt;/div&gt;&lt;blockquote style=&quot;margin: 0 0 0 40px ; border: none ; padding: 0px&quot;&gt;&lt;div&gt;TransactionAttributeSource tas = getTransactionAttributeSource();&lt;/div&gt;&lt;div&gt;// 调用 AnnotationTransactionAttributeSource 父类 AbstractFallbackTransactionAttributeSource 的 getTransactionAttribute 方法&lt;/div&gt;&lt;div&gt;// ★★★ 判断是否有 @Transactional 注解&lt;/div&gt;&lt;div&gt;return (tas == null || &lt;b&gt;&lt;font color=&quot;#ff0000&quot;&gt;tas.getTransactionAttribute(method, targetClass) != null)&lt;/font&gt;&lt;/b&gt;;&lt;/div&gt;&lt;/blockquote&gt;&lt;div&gt;&lt;span&gt;	&lt;/span&gt;}&lt;/div&gt;" style="whiteSpace=wrap;html=1;align=left;fillColor=#dae8fc;strokeColor=#6c8ebf;rounded=0;spacing=6;" vertex="1" parent="1">
          <mxGeometry x="850" y="1112.5" width="500" height="145" as="geometry" />
        </mxCell>
        <mxCell id="4VrhSYovmqzg8rR9ZFnU-14" value="" style="edgeStyle=orthogonalEdgeStyle;curved=1;rounded=0;orthogonalLoop=1;jettySize=auto;html=1;dashed=1;fontColor=#FF0000;strokeWidth=2;" edge="1" parent="1" source="4VrhSYovmqzg8rR9ZFnU-7" target="4VrhSYovmqzg8rR9ZFnU-13">
          <mxGeometry relative="1" as="geometry" />
        </mxCell>
        <mxCell id="4VrhSYovmqzg8rR9ZFnU-33" style="edgeStyle=orthogonalEdgeStyle;curved=1;rounded=0;orthogonalLoop=1;jettySize=auto;html=1;exitX=1;exitY=0.5;exitDx=0;exitDy=0;entryX=1;entryY=0.5;entryDx=0;entryDy=0;fontColor=#FF0000;strokeWidth=1;dashed=1;" edge="1" parent="1" source="4VrhSYovmqzg8rR9ZFnU-7" target="4VrhSYovmqzg8rR9ZFnU-5">
          <mxGeometry relative="1" as="geometry">
            <Array as="points">
              <mxPoint x="1420" y="1400" />
              <mxPoint x="1420" y="1185" />
            </Array>
          </mxGeometry>
        </mxCell>
        <mxCell id="4VrhSYovmqzg8rR9ZFnU-7" value="TransactionAttribute txAttr = computeTransactionAttribute(method, targetClass);" style="whiteSpace=wrap;html=1;align=center;fillColor=#d5e8d4;strokeColor=#82b366;rounded=0;spacing=6;" vertex="1" parent="1">
          <mxGeometry x="875" y="1370" width="450" height="60" as="geometry" />
        </mxCell>
        <mxCell id="4VrhSYovmqzg8rR9ZFnU-36" style="edgeStyle=orthogonalEdgeStyle;curved=1;rounded=0;orthogonalLoop=1;jettySize=auto;html=1;exitX=1;exitY=0.5;exitDx=0;exitDy=0;entryX=1;entryY=0.5;entryDx=0;entryDy=0;dashed=1;fontColor=#FF0000;strokeColor=#000000;strokeWidth=1;" edge="1" parent="1" source="4VrhSYovmqzg8rR9ZFnU-9" target="4VrhSYovmqzg8rR9ZFnU-3">
          <mxGeometry relative="1" as="geometry">
            <Array as="points">
              <mxPoint x="2100" y="1430" />
              <mxPoint x="2100" y="1185" />
            </Array>
          </mxGeometry>
        </mxCell>
        <mxCell id="4VrhSYovmqzg8rR9ZFnU-9" value="&lt;div&gt;@Override&lt;/div&gt;&lt;div&gt;&lt;span&gt;	&lt;/span&gt;public boolean isCandidateClass(Class&amp;lt;?&amp;gt; targetClass) {&lt;/div&gt;&lt;div&gt;&lt;span&gt;		&lt;/span&gt;&lt;span style=&quot;white-space: pre&quot;&gt;	&lt;/span&gt;return &lt;b&gt;&lt;font color=&quot;#ff0000&quot;&gt;AnnotationUtils.isCandidateClass(targetClass, Transactional.class);&lt;/font&gt;&lt;/b&gt;&lt;/div&gt;&lt;div&gt;&lt;b&gt;&lt;font color=&quot;#ff0000&quot;&gt;&lt;span&gt;	&lt;/span&gt;}&lt;/font&gt;&lt;/b&gt;&lt;/div&gt;" style="whiteSpace=wrap;html=1;align=left;fillColor=#f5f5f5;strokeColor=#666666;rounded=0;spacing=6;fontColor=#333333;" vertex="1" parent="1">
          <mxGeometry x="1480.63" y="1380" width="473.75" height="100" as="geometry" />
        </mxCell>
        <mxCell id="4VrhSYovmqzg8rR9ZFnU-18" value="" style="edgeStyle=orthogonalEdgeStyle;curved=1;rounded=0;orthogonalLoop=1;jettySize=auto;html=1;fontColor=#FF0000;strokeWidth=1;" edge="1" parent="1" source="4VrhSYovmqzg8rR9ZFnU-13" target="4VrhSYovmqzg8rR9ZFnU-17">
          <mxGeometry relative="1" as="geometry" />
        </mxCell>
        <mxCell id="4VrhSYovmqzg8rR9ZFnU-13" value="TransactionAttribute txAttr = findTransactionAttribute(specificMethod);" style="whiteSpace=wrap;html=1;fillColor=#d5e8d4;strokeColor=#82b366;rounded=0;spacing=6;" vertex="1" parent="1">
          <mxGeometry x="965" y="1510" width="270" height="60" as="geometry" />
        </mxCell>
        <mxCell id="4VrhSYovmqzg8rR9ZFnU-20" value="" style="edgeStyle=orthogonalEdgeStyle;curved=1;rounded=0;orthogonalLoop=1;jettySize=auto;html=1;fontColor=#FF0000;strokeWidth=1;" edge="1" parent="1" source="4VrhSYovmqzg8rR9ZFnU-17" target="4VrhSYovmqzg8rR9ZFnU-19">
          <mxGeometry relative="1" as="geometry" />
        </mxCell>
        <mxCell id="4VrhSYovmqzg8rR9ZFnU-22" value="" style="edgeStyle=orthogonalEdgeStyle;curved=1;rounded=0;orthogonalLoop=1;jettySize=auto;html=1;fontColor=#FF0000;strokeWidth=1;" edge="1" parent="1" source="4VrhSYovmqzg8rR9ZFnU-17" target="4VrhSYovmqzg8rR9ZFnU-21">
          <mxGeometry relative="1" as="geometry" />
        </mxCell>
        <mxCell id="4VrhSYovmqzg8rR9ZFnU-23" value="if (txAttr != null)" style="edgeLabel;html=1;align=center;verticalAlign=middle;resizable=0;points=[];fontColor=#FF0000;" vertex="1" connectable="0" parent="4VrhSYovmqzg8rR9ZFnU-22">
          <mxGeometry x="0.0677" relative="1" as="geometry">
            <mxPoint as="offset" />
          </mxGeometry>
        </mxCell>
        <mxCell id="4VrhSYovmqzg8rR9ZFnU-17" value="判断" style="rhombus;whiteSpace=wrap;html=1;fillColor=#fff2cc;strokeColor=#d6b656;rounded=0;spacing=6;" vertex="1" parent="1">
          <mxGeometry x="1060" y="1620" width="80" height="80" as="geometry" />
        </mxCell>
        <mxCell id="4VrhSYovmqzg8rR9ZFnU-26" value="" style="edgeStyle=orthogonalEdgeStyle;curved=1;rounded=0;orthogonalLoop=1;jettySize=auto;html=1;fontColor=#FF0000;strokeWidth=1;" edge="1" parent="1" source="4VrhSYovmqzg8rR9ZFnU-19" target="4VrhSYovmqzg8rR9ZFnU-25">
          <mxGeometry relative="1" as="geometry" />
        </mxCell>
        <mxCell id="4VrhSYovmqzg8rR9ZFnU-19" value="txAttr = findTransactionAttribute(specificMethod.getDeclaringClass());" style="whiteSpace=wrap;html=1;fillColor=#fff2cc;strokeColor=#d6b656;rounded=0;spacing=6;" vertex="1" parent="1">
          <mxGeometry x="922.5" y="1760" width="355" height="60" as="geometry" />
        </mxCell>
        <mxCell id="4VrhSYovmqzg8rR9ZFnU-35" style="edgeStyle=orthogonalEdgeStyle;curved=1;rounded=0;orthogonalLoop=1;jettySize=auto;html=1;exitX=0;exitY=0.5;exitDx=0;exitDy=0;entryX=0;entryY=0.5;entryDx=0;entryDy=0;fontColor=#FF0000;strokeWidth=1;dashed=1;" edge="1" parent="1" source="4VrhSYovmqzg8rR9ZFnU-21" target="4VrhSYovmqzg8rR9ZFnU-7">
          <mxGeometry relative="1" as="geometry">
            <Array as="points">
              <mxPoint x="730" y="1660" />
              <mxPoint x="730" y="1400" />
            </Array>
          </mxGeometry>
        </mxCell>
        <mxCell id="4VrhSYovmqzg8rR9ZFnU-21" value="return txAttr;" style="whiteSpace=wrap;html=1;fillColor=#f5f5f5;strokeColor=#666666;rounded=0;spacing=6;fontColor=#333333;" vertex="1" parent="1">
          <mxGeometry x="780" y="1630" width="120" height="60" as="geometry" />
        </mxCell>
        <mxCell id="4VrhSYovmqzg8rR9ZFnU-27" style="edgeStyle=orthogonalEdgeStyle;curved=1;rounded=0;orthogonalLoop=1;jettySize=auto;html=1;exitX=0;exitY=0.5;exitDx=0;exitDy=0;entryX=0.5;entryY=1;entryDx=0;entryDy=0;fontColor=#FF0000;strokeWidth=1;" edge="1" parent="1" source="4VrhSYovmqzg8rR9ZFnU-25" target="4VrhSYovmqzg8rR9ZFnU-21">
          <mxGeometry relative="1" as="geometry" />
        </mxCell>
        <mxCell id="4VrhSYovmqzg8rR9ZFnU-28" value="if (txAttr != null &amp;amp;&amp;amp; ClassUtils.isUserLevelMethod(method))" style="edgeLabel;html=1;align=center;verticalAlign=middle;resizable=0;points=[];fontColor=#FF0000;" vertex="1" connectable="0" parent="4VrhSYovmqzg8rR9ZFnU-27">
          <mxGeometry x="0.1956" y="-56" relative="1" as="geometry">
            <mxPoint as="offset" />
          </mxGeometry>
        </mxCell>
        <mxCell id="4VrhSYovmqzg8rR9ZFnU-30" value="" style="edgeStyle=orthogonalEdgeStyle;curved=1;rounded=0;orthogonalLoop=1;jettySize=auto;html=1;fontColor=#FF0000;strokeWidth=1;" edge="1" parent="1" source="4VrhSYovmqzg8rR9ZFnU-25" target="4VrhSYovmqzg8rR9ZFnU-29">
          <mxGeometry relative="1" as="geometry" />
        </mxCell>
        <mxCell id="4VrhSYovmqzg8rR9ZFnU-25" value="&lt;span&gt;判断&lt;/span&gt;" style="rhombus;whiteSpace=wrap;html=1;fillColor=#fff2cc;strokeColor=#d6b656;rounded=0;spacing=6;" vertex="1" parent="1">
          <mxGeometry x="1060" y="1880" width="80" height="80" as="geometry" />
        </mxCell>
        <mxCell id="4VrhSYovmqzg8rR9ZFnU-29" value="retrun null;" style="whiteSpace=wrap;html=1;fillColor=#f5f5f5;strokeColor=#666666;rounded=0;spacing=6;fontColor=#333333;" vertex="1" parent="1">
          <mxGeometry x="1040" y="2010" width="120" height="60" as="geometry" />
        </mxCell>
        <mxCell id="4VrhSYovmqzg8rR9ZFnU-38" style="edgeStyle=orthogonalEdgeStyle;curved=1;rounded=0;orthogonalLoop=1;jettySize=auto;html=1;exitX=1;exitY=0.5;exitDx=0;exitDy=0;entryX=0;entryY=0.5;entryDx=0;entryDy=0;dashed=1;fontColor=#FF0000;strokeColor=#000000;strokeWidth=1;" edge="1" parent="1" source="4VrhSYovmqzg8rR9ZFnU-37" target="h3sMWkzl3CLincA4zuW1-16">
          <mxGeometry relative="1" as="geometry" />
        </mxCell>
        <mxCell id="4VrhSYovmqzg8rR9ZFnU-37" value="&lt;div&gt;// 事务管理器&lt;/div&gt;&lt;div&gt;&lt;span&gt;		&lt;/span&gt;@Bean&lt;/div&gt;&lt;div&gt;&lt;span&gt;		&lt;/span&gt;public &lt;b&gt;&lt;font color=&quot;#ff0000&quot;&gt;PlatformTransactionManager&lt;/font&gt;&lt;/b&gt; transactionManager(DataSource &lt;b&gt;&lt;font color=&quot;#ff0000&quot;&gt;dataSource&lt;/font&gt;&lt;/b&gt;) {&lt;/div&gt;&lt;blockquote style=&quot;margin: 0 0 0 40px ; border: none ; padding: 0px&quot;&gt;&lt;div&gt;DataSourceTransactionManager transactionManager = new DataSourceTransactionManager();&lt;/div&gt;transactionManager&lt;span&gt;.setDataSource(dataSource);&lt;/span&gt;&lt;div&gt;// 设置要不要把事务信息同步到线程中&lt;/div&gt;&lt;div&gt;// transactionManager.setTransactionSynchronization(1);&lt;/div&gt;&lt;div&gt;// 部分失败是否全局回滚，如果设置 false 的话，则不会如果有 tryCatch 则还是会全部提交，否则全部回滚&lt;/div&gt;transactionManager&lt;span&gt;.setGlobalRollbackOnParticipationFailure(true);&lt;/span&gt;&lt;div&gt;return transactionManager;&lt;/div&gt;&lt;/blockquote&gt;&lt;div&gt;&lt;span&gt;		&lt;/span&gt;}&lt;/div&gt;" style="rounded=0;whiteSpace=wrap;html=1;fontColor=#333333;align=left;spacing=6;fillColor=#f5f5f5;strokeColor=#666666;" vertex="1" parent="1">
          <mxGeometry x="-670" y="1243" width="660" height="189" as="geometry" />
        </mxCell>
        <mxCell id="4VrhSYovmqzg8rR9ZFnU-40" value="事物管理器" style="whiteSpace=wrap;html=1;shape=partialRectangle;top=0;left=0;bottom=1;right=0;points=[[0,1],[1,1]];fillColor=#fff2cc;align=center;verticalAlign=bottom;routingCenterY=0.5;snapToPoint=1;recursiveResize=0;autosize=1;treeFolding=1;treeMoving=1;newEdgeStyle={&quot;edgeStyle&quot;:&quot;entityRelationEdgeStyle&quot;,&quot;startArrow&quot;:&quot;none&quot;,&quot;endArrow&quot;:&quot;none&quot;,&quot;segment&quot;:10,&quot;curved&quot;:1};strokeColor=#d6b656;" vertex="1" parent="1">
          <mxGeometry x="-620" y="1175" width="90" height="20" as="geometry" />
        </mxCell>
        <mxCell id="4VrhSYovmqzg8rR9ZFnU-41" value="" style="edgeStyle=entityRelationEdgeStyle;startArrow=none;endArrow=none;segment=10;curved=1;rounded=0;fontColor=#000000;strokeColor=#000000;strokeWidth=1;exitX=0.25;exitY=0;exitDx=0;exitDy=0;" edge="1" target="4VrhSYovmqzg8rR9ZFnU-40" parent="1" source="4VrhSYovmqzg8rR9ZFnU-37">
          <mxGeometry relative="1" as="geometry">
            <mxPoint x="-520" y="1180" as="sourcePoint" />
          </mxGeometry>
        </mxCell>
        <mxCell id="4VrhSYovmqzg8rR9ZFnU-43" style="edgeStyle=orthogonalEdgeStyle;curved=1;rounded=0;orthogonalLoop=1;jettySize=auto;html=1;exitX=0.5;exitY=1;exitDx=0;exitDy=0;entryX=0.5;entryY=0;entryDx=0;entryDy=0;fontColor=#FF0000;strokeColor=#000000;strokeWidth=1;dashed=1;" edge="1" parent="1" source="4VrhSYovmqzg8rR9ZFnU-42" target="4VrhSYovmqzg8rR9ZFnU-37">
          <mxGeometry relative="1" as="geometry" />
        </mxCell>
        <mxCell id="4VrhSYovmqzg8rR9ZFnU-42" value="&lt;div&gt;@Bean&lt;/div&gt;&lt;div&gt;&lt;span&gt;		&lt;/span&gt;public &lt;b&gt;&lt;font color=&quot;#ff0000&quot;&gt;DataSource&lt;/font&gt;&lt;/b&gt; dataSource() {&lt;/div&gt;&lt;div&gt;&lt;span&gt;			&lt;/span&gt;&lt;span style=&quot;white-space: pre&quot;&gt;	&lt;/span&gt;// DriverManagerDataSource dataSource = new DriverManagerDataSource();&lt;/div&gt;&lt;div&gt;&lt;span&gt;&lt;span style=&quot;white-space: pre&quot;&gt;	&lt;/span&gt;DruidDataSource dataSource = new DruidDataSource();&lt;/span&gt;&lt;/div&gt;&lt;div&gt;&lt;span&gt;&lt;span style=&quot;white-space: pre&quot;&gt;	&lt;/span&gt;dataSource.setUsername(&quot;root&quot;);&lt;/span&gt;&lt;/div&gt;&lt;div&gt;&lt;span&gt;&lt;span style=&quot;white-space: pre&quot;&gt;	&lt;/span&gt;dataSource.setPassword(&quot;root&quot;);&lt;/span&gt;&lt;/div&gt;&lt;div&gt;&lt;span&gt;&lt;span style=&quot;white-space: pre&quot;&gt;	&lt;/span&gt;dataSource.setUrl(&quot;jdbc:mysql://127.0.0.1:3306/test“);&lt;/span&gt;&lt;/div&gt;&lt;div&gt;&lt;span&gt;&lt;span style=&quot;white-space: pre&quot;&gt;	&lt;/span&gt;dataSource.setDriverClassName(&quot;com.mysql.cj.jdbc.Driver&quot;);&lt;/span&gt;&lt;/div&gt;&lt;div&gt;&lt;span&gt;&lt;span style=&quot;white-space: pre&quot;&gt;	&lt;/span&gt;return dataSource;&lt;/span&gt;&lt;/div&gt;&lt;div&gt;&lt;span&gt;		&lt;/span&gt;}&lt;/div&gt;" style="rounded=0;whiteSpace=wrap;html=1;fontColor=#333333;fillColor=#f5f5f5;strokeColor=#666666;align=left;spacing=6;" vertex="1" parent="1">
          <mxGeometry x="-650" y="950" width="620" height="190" as="geometry" />
        </mxCell>
        <mxCell id="4VrhSYovmqzg8rR9ZFnU-44" value="数据源" style="whiteSpace=wrap;html=1;shape=partialRectangle;top=0;left=0;bottom=1;right=0;points=[[0,1],[1,1]];fillColor=#fff2cc;align=center;verticalAlign=bottom;routingCenterY=0.5;snapToPoint=1;recursiveResize=0;autosize=1;treeFolding=1;treeMoving=1;newEdgeStyle={&quot;edgeStyle&quot;:&quot;entityRelationEdgeStyle&quot;,&quot;startArrow&quot;:&quot;none&quot;,&quot;endArrow&quot;:&quot;none&quot;,&quot;segment&quot;:10,&quot;curved&quot;:1};strokeColor=#d6b656;" vertex="1" parent="1">
          <mxGeometry x="-610" y="880" width="70" height="20" as="geometry" />
        </mxCell>
        <mxCell id="4VrhSYovmqzg8rR9ZFnU-45" value="" style="edgeStyle=entityRelationEdgeStyle;startArrow=none;endArrow=none;segment=10;curved=1;rounded=0;fontColor=#000000;strokeColor=#000000;strokeWidth=1;exitX=0.25;exitY=0;exitDx=0;exitDy=0;" edge="1" parent="1" target="4VrhSYovmqzg8rR9ZFnU-44" source="4VrhSYovmqzg8rR9ZFnU-42">
          <mxGeometry relative="1" as="geometry">
            <mxPoint x="-504.9999999999998" y="938" as="sourcePoint" />
          </mxGeometry>
        </mxCell>
        <mxCell id="4VrhSYovmqzg8rR9ZFnU-46" value="&lt;div&gt;@Override&lt;/div&gt;&lt;div&gt;&lt;span&gt;	&lt;/span&gt;@Nullable&lt;/div&gt;&lt;div&gt;&lt;span&gt;	&lt;/span&gt;public Object &lt;b&gt;&lt;font color=&quot;#ff0000&quot;&gt;invoke&lt;/font&gt;&lt;/b&gt;(MethodInvocation invocation) throws Throwable {&lt;/div&gt;&lt;blockquote style=&quot;margin: 0 0 0 40px ; border: none ; padding: 0px&quot;&gt;&lt;div&gt;// Work out the target class: may be {@code null}.&lt;/div&gt;&lt;div&gt;// The TransactionAttributeSource should be passed the target class&lt;/div&gt;&lt;div&gt;// as well as the method, which may be from an interface.&lt;/div&gt;&lt;div&gt;Class&amp;lt;?&amp;gt; targetClass = (invocation.getThis() != null ? AopUtils.getTargetClass(invocation.getThis()) : null);&lt;/div&gt;&lt;/blockquote&gt;&lt;div&gt;&lt;br&gt;&lt;/div&gt;&lt;blockquote style=&quot;margin: 0 0 0 40px ; border: none ; padding: 0px&quot;&gt;&lt;div&gt;// Adapt to TransactionAspectSupport&#39;s invokeWithinTransaction...&lt;/div&gt;&lt;div&gt;// ★★★ 执行代理逻辑&lt;/div&gt;&lt;div&gt;return invokeWithinTransaction(invocation.getMethod(), targetClass, new CoroutinesInvocationCallback() {&lt;/div&gt;&lt;/blockquote&gt;&lt;blockquote style=&quot;margin: 0 0 0 40px ; border: none ; padding: 0px&quot;&gt;&lt;blockquote style=&quot;margin: 0 0 0 40px ; border: none ; padding: 0px&quot;&gt;&lt;div&gt;@Override&lt;/div&gt;&lt;/blockquote&gt;&lt;blockquote style=&quot;margin: 0 0 0 40px ; border: none ; padding: 0px&quot;&gt;&lt;div&gt;@Nullable&lt;/div&gt;&lt;/blockquote&gt;&lt;blockquote style=&quot;margin: 0 0 0 40px ; border: none ; padding: 0px&quot;&gt;&lt;div&gt;public Object proceedWithInvocation() throws Throwable {&lt;/div&gt;&lt;/blockquote&gt;&lt;blockquote style=&quot;margin: 0 0 0 40px ; border: none ; padding: 0px&quot;&gt;&lt;div&gt;&lt;span style=&quot;white-space: pre&quot;&gt;	&lt;/span&gt;return invocation.proceed();&lt;/div&gt;&lt;/blockquote&gt;&lt;blockquote style=&quot;margin: 0 0 0 40px ; border: none ; padding: 0px&quot;&gt;&lt;div&gt;}&lt;/div&gt;&lt;/blockquote&gt;&lt;blockquote style=&quot;margin: 0 0 0 40px ; border: none ; padding: 0px&quot;&gt;&lt;div&gt;@Override&lt;/div&gt;&lt;/blockquote&gt;&lt;blockquote style=&quot;margin: 0 0 0 40px ; border: none ; padding: 0px&quot;&gt;&lt;div&gt;public Object getTarget() {&lt;/div&gt;&lt;/blockquote&gt;&lt;blockquote style=&quot;margin: 0 0 0 40px ; border: none ; padding: 0px&quot;&gt;&lt;div&gt;&lt;span style=&quot;white-space: pre&quot;&gt;	&lt;/span&gt;return invocation.getThis();&lt;/div&gt;&lt;/blockquote&gt;&lt;blockquote style=&quot;margin: 0 0 0 40px ; border: none ; padding: 0px&quot;&gt;&lt;div&gt;}&lt;/div&gt;&lt;/blockquote&gt;&lt;blockquote style=&quot;margin: 0 0 0 40px ; border: none ; padding: 0px&quot;&gt;&lt;div&gt;@Override&lt;/div&gt;&lt;/blockquote&gt;&lt;blockquote style=&quot;margin: 0 0 0 40px ; border: none ; padding: 0px&quot;&gt;&lt;div&gt;public Object[] getArguments() {&lt;/div&gt;&lt;/blockquote&gt;&lt;blockquote style=&quot;margin: 0 0 0 40px ; border: none ; padding: 0px&quot;&gt;&lt;div&gt;&lt;span style=&quot;white-space: pre&quot;&gt;	&lt;/span&gt;return invocation.getArguments();&lt;/div&gt;&lt;/blockquote&gt;&lt;blockquote style=&quot;margin: 0 0 0 40px ; border: none ; padding: 0px&quot;&gt;&lt;div&gt;}&lt;/div&gt;&lt;/blockquote&gt;&lt;/blockquote&gt;&lt;blockquote style=&quot;margin: 0 0 0 40px ; border: none ; padding: 0px&quot;&gt;&lt;div&gt;});&lt;/div&gt;&lt;/blockquote&gt;&lt;div&gt;&lt;span&gt;	&lt;/span&gt;}&lt;/div&gt;" style="whiteSpace=wrap;html=1;align=left;fillColor=#f5f5f5;strokeColor=#666666;rounded=0;spacing=6;fontColor=#333333;" vertex="1" parent="1">
          <mxGeometry x="72.5" y="1596.25" width="635" height="387.5" as="geometry" />
        </mxCell>
        <mxCell id="4VrhSYovmqzg8rR9ZFnU-51" value="" style="edgeStyle=orthogonalEdgeStyle;curved=1;rounded=0;orthogonalLoop=1;jettySize=auto;html=1;fontColor=#FF0000;strokeColor=#000000;strokeWidth=1;" edge="1" parent="1" source="4VrhSYovmqzg8rR9ZFnU-48" target="4VrhSYovmqzg8rR9ZFnU-50">
          <mxGeometry relative="1" as="geometry" />
        </mxCell>
        <mxCell id="4VrhSYovmqzg8rR9ZFnU-48" value="InfrastructureAdvisorAutoProxyCreator extends AbstractAdvisorAutoProxyCreator" style="whiteSpace=wrap;html=1;fillColor=#f8cecc;strokeColor=#b85450;rounded=0;" vertex="1" parent="1">
          <mxGeometry x="720" y="480" width="290" height="60" as="geometry" />
        </mxCell>
        <mxCell id="4VrhSYovmqzg8rR9ZFnU-50" value="&lt;div&gt;// 正常情况下进行 AOP 的入口&lt;/div&gt;&lt;div&gt;&lt;span&gt;	&lt;/span&gt;@Override&lt;/div&gt;&lt;div&gt;&lt;span&gt;	&lt;/span&gt;public Object &lt;b&gt;&lt;font color=&quot;#ff0000&quot;&gt;postProcessAfterInitialization&lt;/font&gt;&lt;/b&gt;(@Nullable Object bean, String beanName) {&lt;/div&gt;&lt;blockquote style=&quot;margin: 0 0 0 40px ; border: none ; padding: 0px&quot;&gt;&lt;div&gt;if (bean != null) {&lt;/div&gt;&lt;div&gt;&lt;span&gt;&lt;span style=&quot;white-space: pre&quot;&gt;	&lt;/span&gt;// 获取缓存 key&lt;/span&gt;&lt;/div&gt;&lt;div&gt;&lt;span&gt;&lt;span style=&quot;white-space: pre&quot;&gt;	&lt;/span&gt;Object cacheKey = getCacheKey(bean.getClass(), beanName);&lt;/span&gt;&lt;/div&gt;&lt;div&gt;&lt;span&gt;&lt;span style=&quot;white-space: pre&quot;&gt;	&lt;/span&gt;// earlyProxyReferences：早期的代理对象引用：提前进行 AOP 的对象（循环依赖）会存在在这个集合中&lt;/span&gt;&lt;/div&gt;&lt;div&gt;&lt;span&gt;&lt;span style=&quot;white-space: pre&quot;&gt;	&lt;/span&gt;if (this.earlyProxyReferences.remove(cacheKey) != bean) {&lt;/span&gt;&lt;/div&gt;&lt;div&gt;&lt;span&gt;&lt;span style=&quot;white-space: pre&quot;&gt;	&lt;/span&gt;&lt;span style=&quot;white-space: pre&quot;&gt;	&lt;/span&gt;// ★★★ 没有提前进行 AOP，则在这里进行 AOP&lt;/span&gt;&lt;/div&gt;&lt;div&gt;&lt;span&gt;&lt;span style=&quot;white-space: pre&quot;&gt;	&lt;/span&gt;&lt;span style=&quot;white-space: pre&quot;&gt;	&lt;/span&gt;return wrapIfNecessary(bean, beanName, cacheKey);&lt;/span&gt;&lt;/div&gt;&lt;/blockquote&gt;&lt;blockquote style=&quot;margin: 0 0 0 40px ; border: none ; padding: 0px&quot;&gt;&lt;div&gt;&lt;span style=&quot;white-space: pre&quot;&gt;	&lt;/span&gt;}&lt;/div&gt;&lt;div&gt;}&lt;/div&gt;&lt;div&gt;return bean;&lt;/div&gt;&lt;/blockquote&gt;&lt;div&gt;&lt;span&gt;	&lt;/span&gt;}&lt;/div&gt;" style="whiteSpace=wrap;html=1;fillColor=#f5f5f5;strokeColor=#666666;rounded=0;fontColor=#333333;align=left;spacing=6;" vertex="1" parent="1">
          <mxGeometry x="1110" y="390" width="660" height="240" as="geometry" />
        </mxCell>
      </root>
    </mxGraphModel>
  </diagram>
</mxfile>
